<svg xmlns="http://www.w3.org/2000/svg" width="400" height="400" viewBox="0 0 400 400">
  <defs>
    <!-- Floco de neve MAIS DOURADO -->
    <g id="snowflake">
      <path d="M 0,-15 L 0,15 M -15,0 L 15,0 M -10.6,-10.6 L 10.6,10.6 M -10.6,10.6 L 10.6,-10.6" 
            stroke="#FFD700" stroke-width="2" stroke-linecap="round"/>
      <circle cx="0" cy="-15" r="2.5" fill="#FFD700"/>
      <circle cx="0" cy="15" r="2.5" fill="#FFD700"/>
      <circle cx="-15" cy="0" r="2.5" fill="#FFD700"/>
      <circle cx="15" cy="0" r="2.5" fill="#FFD700"/>
      <circle cx="-10.6" cy="-10.6" r="2.5" fill="#FFD700"/>
      <circle cx="10.6" cy="10.6" r="2.5" fill="#FFD700"/>
      <circle cx="-10.6" cy="10.6" r="2.5" fill="#FFD700"/>
      <circle cx="10.6" cy="-10.6" r="2.5" fill="#FFD700"/>
    </g>
  </defs>
  
  <!-- Fundo vermelho sólido -->
  <rect width="400" height="400" fill="#8B0000"/>
  
  <!-- Grade de flocos de neve dourados -->
  <!-- Linha 1 -->
  <use href="#snowflake" transform="translate(50, 50)"/>
  <use href="#snowflake" transform="translate(150, 50)"/>
  <use href="#snowflake" transform="translate(250, 50)"/>
  <use href="#snowflake" transform="translate(350, 50)"/>
  
  <!-- Linha 2 -->
  <use href="#snowflake" transform="translate(100, 100)"/>
  <use href="#snowflake" transform="translate(200, 100)"/>
  <use href="#snowflake" transform="translate(300, 100)"/>
  
  <!-- Linha 3 -->
  <use href="#snowflake" transform="translate(50, 150)"/>
  <use href="#snowflake" transform="translate(150, 150)"/>
  <use href="#snowflake" transform="translate(250, 150)"/>
  <use href="#snowflake" transform="translate(350, 150)"/>
  
  <!-- Linha 4 -->
  <use href="#snowflake" transform="translate(100, 200)"/>
  <use href="#snowflake" transform="translate(200, 200)"/>
  <use href="#snowflake" transform="translate(300, 200)"/>
  
  <!-- Linha 5 -->
  <use href="#snowflake" transform="translate(50, 250)"/>
  <use href="#snowflake" transform="translate(150, 250)"/>
  <use href="#snowflake" transform="translate(250, 250)"/>
  <use href="#snowflake" transform="translate(350, 250)"/>
  
  <!-- Linha 6 -->
  <use href="#snowflake" transform="translate(100, 300)"/>
  <use href="#snowflake" transform="translate(200, 300)"/>
  <use href="#snowflake" transform="translate(300, 300)"/>
  
  <!-- Linha 7 -->
  <use href="#snowflake" transform="translate(50, 350)"/>
  <use href="#snowflake" transform="translate(150, 350)"/>
  <use href="#snowflake" transform="translate(250, 350)"/>
  <use href="#snowflake" transform="translate(350, 350)"/>
</svg>
