<svg width="200" height="200" xmlns="http://www.w3.org/2000/svg">
  <defs>
    <pattern id="leaves" x="0" y="0" width="200" height="200" patternUnits="userSpaceOnUse">
      <!-- Folhas -->
      <ellipse cx="40" cy="30" rx="8" ry="15" fill="#90EE90" opacity="0.2" transform="rotate(45 40 30)"/>
      <ellipse cx="120" cy="50" rx="10" ry="18" fill="#228B22" opacity="0.15" transform="rotate(-30 120 50)"/>
      <ellipse cx="180" cy="40" rx="7" ry="13" fill="#90EE90" opacity="0.18" transform="rotate(60 180 40)"/>
      <ellipse cx="60" cy="90" rx="9" ry="16" fill="#32CD32" opacity="0.16" transform="rotate(-45 60 90)"/>
      <ellipse cx="150" cy="100" rx="8" ry="14" fill="#90EE90" opacity="0.2" transform="rotate(20 150 100)"/>
      <ellipse cx="30" cy="140" rx="10" ry="17" fill="#228B22" opacity="0.15" transform="rotate(-60 30 140)"/>
      <ellipse cx="110" cy="160" rx="7" ry="13" fill="#90EE90" opacity="0.18" transform="rotate(40 110 160)"/>
      <ellipse cx="180" cy="170" rx="9" ry="15" fill="#32CD32" opacity="0.16" transform="rotate(-20 180 170)"/>
      
      <!-- Ramos -->
      <path d="M 40 30 L 45 25" stroke="#228B22" stroke-width="1" opacity="0.3"/>
      <path d="M 40 30 L 48 33" stroke="#228B22" stroke-width="0.8" opacity="0.3"/>
      <path d="M 120 50 L 115 45" stroke="#2d5016" stroke-width="1" opacity="0.3"/>
      <path d="M 120 50 L 125 55" stroke="#2d5016" stroke-width="0.8" opacity="0.3"/>
      <path d="M 150 100 L 155 95" stroke="#228B22" stroke-width="1" opacity="0.3"/>
      
      <!-- Cogumelos pequenos -->
      <ellipse cx="80" cy="125" rx="5" ry="3" fill="#d4a574" opacity="0.2"/>
      <rect x="78" y="125" width="4" height="5" fill="#a67c52" opacity="0.15"/>
      
      <ellipse cx="170" cy="130" rx="4" ry="2.5" fill="#d4a574" opacity="0.18"/>
      <rect x="168.5" y="130" width="3" height="4" fill="#a67c52" opacity="0.12"/>
      
      <!-- Plantas rasteiras -->
      <path d="M 20 180 Q 22 175, 24 180 T 28 180" stroke="#90EE90" stroke-width="1.5" fill="none" opacity="0.2"/>
      <path d="M 140 185 Q 142 180, 144 185 T 148 185" stroke="#32CD32" stroke-width="1.5" fill="none" opacity="0.18"/>
    </pattern>
  </defs>
  <rect width="200" height="200" fill="url(#leaves)"/>
</svg>
