<svg width="200" height="200" xmlns="http://www.w3.org/2000/svg">
  <defs>
    <pattern id="stars" x="0" y="0" width="200" height="200" patternUnits="userSpaceOnUse">
      <!-- Estrelas -->
      <circle cx="20" cy="20" r="1.5" fill="#ffd700" opacity="0.8"/>
      <circle cx="80" cy="40" r="1" fill="#fff" opacity="0.6"/>
      <circle cx="150" cy="30" r="1.2" fill="#ffd700" opacity="0.7"/>
      <circle cx="60" cy="80" r="0.8" fill="#fff" opacity="0.5"/>
      <circle cx="180" cy="70" r="1.5" fill="#87ceeb" opacity="0.8"/>
      <circle cx="30" cy="120" r="1" fill="#fff" opacity="0.6"/>
      <circle cx="120" cy="100" r="1.3" fill="#ffd700" opacity="0.7"/>
      <circle cx="170" cy="140" r="0.9" fill="#fff" opacity="0.5"/>
      <circle cx="50" cy="160" r="1.1" fill="#87ceeb" opacity="0.6"/>
      <circle cx="140" cy="180" r="1.4" fill="#ffd700" opacity="0.8"/>
      
      <!-- Constelações -->
      <line x1="20" y1="20" x2="80" y2="40" stroke="#ffd700" stroke-width="0.3" opacity="0.3"/>
      <line x1="80" y1="40" x2="150" y2="30" stroke="#ffd700" stroke-width="0.3" opacity="0.3"/>
      <line x1="30" y1="120" x2="120" y2="100" stroke="#87ceeb" stroke-width="0.3" opacity="0.3"/>
      <line x1="120" y1="100" x2="140" y2="180" stroke="#87ceeb" stroke-width="0.3" opacity="0.3"/>
      
      <!-- Lua crescente -->
      <circle cx="100" cy="100" r="15" fill="#ffd700" opacity="0.15"/>
      <circle cx="105" cy="100" r="13" fill="#1a1a3e" opacity="0.3"/>
    </pattern>
  </defs>
  <rect width="200" height="200" fill="url(#stars)"/>
</svg>
