<svg width="400" height="400" xmlns="http://www.w3.org/2000/svg">
  <defs>
    <!-- Gradiente para teia -->
    <radialGradient id="webGrad">
      <stop offset="0%" style="stop-color:#ffffff;stop-opacity:0.8" />
      <stop offset="100%" style="stop-color:#9370db;stop-opacity:0.3" />
    </radialGradient>
  </defs>
  
  <!-- Teias de aranha radiais -->
  <g stroke="url(#webGrad)" stroke-width="1.5" fill="none" opacity="0.6">
    <!-- Centro da teia no canto -->
    <g transform="translate(0, 0)">
      <!-- Raios da teia -->
      <line x1="0" y1="0" x2="150" y2="0"/>
      <line x1="0" y1="0" x2="140" y2="40"/>
      <line x1="0" y1="0" x2="120" y2="80"/>
      <line x1="0" y1="0" x2="90" y2="120"/>
      <line x1="0" y1="0" x2="50" y2="150"/>
      <line x1="0" y1="0" x2="0" y2="150"/>
      
      <!-- Círculos concêntricos -->
      <path d="M 30 0 Q 28 8, 22 15 Q 15 22, 8 28 Q 0 30, 0 30"/>
      <path d="M 60 0 Q 56 16, 44 30 Q 30 44, 16 56 Q 0 60, 0 60"/>
      <path d="M 90 0 Q 84 24, 66 45 Q 45 66, 24 84 Q 0 90, 0 90"/>
      <path d="M 120 0 Q 112 32, 88 60 Q 60 88, 32 112 Q 0 120, 0 120"/>
    </g>
    
    <!-- Segunda teia no outro canto -->
    <g transform="translate(400, 400)">
      <line x1="0" y1="0" x2="-150" y2="0"/>
      <line x1="0" y1="0" x2="-140" y2="-40"/>
      <line x1="0" y1="0" x2="-120" y2="-80"/>
      <line x1="0" y1="0" x2="-90" y2="-120"/>
      <line x1="0" y1="0" x2="-50" y2="-150"/>
      <line x1="0" y1="0" x2="0" y2="-150"/>
      
      <path d="M -30 0 Q -28 -8, -22 -15 Q -15 -22, -8 -28 Q 0 -30, 0 -30"/>
      <path d="M -60 0 Q -56 -16, -44 -30 Q -30 -44, -16 -56 Q 0 -60, 0 -60"/>
      <path d="M -90 0 Q -84 -24, -66 -45 Q -45 -66, -24 -84 Q 0 -90, 0 -90"/>
    </g>
  </g>
  
  <!-- Aranha pequena -->
  <g transform="translate(80, 60)" opacity="0.7">
    <ellipse cx="0" cy="0" rx="4" ry="5" fill="#1a0033"/>
    <ellipse cx="0" cy="-6" rx="3" ry="3" fill="#1a0033"/>
    <!-- Pernas -->
    <line x1="-4" y1="-2" x2="-10" y2="-6" stroke="#1a0033" stroke-width="1"/>
    <line x1="-4" y1="0" x2="-11" y2="0" stroke="#1a0033" stroke-width="1"/>
    <line x1="-4" y1="2" x2="-10" y2="6" stroke="#1a0033" stroke-width="1"/>
    <line x1="4" y1="-2" x2="10" y2="-6" stroke="#1a0033" stroke-width="1"/>
    <line x1="4" y1="0" x2="11" y2="0" stroke="#1a0033" stroke-width="1"/>
    <line x1="4" y1="2" x2="10" y2="6" stroke="#1a0033" stroke-width="1"/>
  </g>
  
  <!-- Gotas de orvalho na teia -->
  <circle cx="45" cy="15" r="1.5" fill="white" opacity="0.8"/>
  <circle cx="68" cy="30" r="1" fill="white" opacity="0.7"/>
  <circle cx="88" cy="55" r="1.2" fill="white" opacity="0.75"/>
  <circle cx="340" cy="355" r="1.5" fill="white" opacity="0.8"/>
  <circle cx="360" cy="370" r="1" fill="white" opacity="0.7"/>
</svg>
